<svg width="200" height="34" viewBox="0 0 200 34" fill="none" xmlns="http://www.w3.org/2000/svg">
<g clip-path="url(#clip0_2010_20)">
<path d="M37.4113 25.6745V9.07714C37.4113 7.78661 36.7353 7.22879 35.1848 7.05389V6.70407H42.6633V7.05389C41.0797 7.20043 40.347 7.75824 40.347 9.07714V25.6745C40.347 26.9934 41.0797 27.5512 42.6633 27.6977V28.0476H35.1848V27.6977C36.7401 27.5228 37.4113 26.965 37.4113 25.6745Z" fill="white"/>
<path d="M51.7396 25.6745V9.11022C51.7396 7.79132 51.0636 7.23351 49.5131 7.0586V6.70879H58.4854C62.6217 6.70879 65.2879 8.70368 65.2879 11.8378C65.2879 14.4189 62.9431 16.4138 59.6861 16.9102L64.5551 24.9748C65.6377 26.7617 66.55 27.5559 68.162 27.7025V28.0523C64.73 28.5817 62.4421 27.9341 61.0097 25.3861L57.3461 18.8767C56.585 17.5294 55.8523 17.1465 55.1763 17.1465H54.6799V25.6792C54.6799 26.9981 55.4127 27.5559 57.5825 27.7025V28.0523H49.5178V27.7025C51.0731 27.5275 51.7443 26.9697 51.7443 25.6792L51.7396 25.6745ZM55.0865 16.584C60.3337 16.584 62.0639 15.2367 62.0639 12.0978C62.0639 8.95895 60.2439 7.20042 57.989 7.20042H56.9348C55.4079 7.20042 54.6752 7.75823 54.6752 9.1055V16.584H55.0865Z" fill="white"/>
<path d="M70.5067 17.3782C70.5067 10.6324 73.9954 6.38261 79.5357 6.38261C85.0761 6.38261 88.4797 10.5757 88.4797 17.2316C88.4797 23.8876 85.0477 28.3454 79.5972 28.3454C74.1467 28.3454 70.5067 24.0625 70.5067 17.3782ZM79.9754 27.8159C83.1993 27.8159 85.2226 23.8876 85.2226 17.7611C85.2226 11.1051 82.963 6.91206 79.3277 6.91206C75.8958 6.91206 73.7591 10.8688 73.7591 17.1749C73.7591 23.481 76.1652 27.8206 79.9754 27.8206V27.8159Z" fill="white"/>
<path d="M95.2491 25.0599C95.5138 19.9592 95.3058 14.2393 95.3389 8.55241C95.3389 7.79132 94.488 7.20515 93.0793 7.0586V6.70879H98.0949L108.504 21.8076C108.504 17.1182 108.533 11.8662 108.448 9.98949C108.329 8.23096 107.512 7.23351 105.309 7.0586V6.70879H111.582V7.0586C110.145 7.20515 109.384 7.79132 109.265 9.61131C108.882 15.4447 109.176 21.7509 109.119 28.0523H108.622L95.9534 9.34658C95.9818 15.4164 96.0102 21.8359 96.1 25.0316C96.1284 26.4403 96.7429 27.4945 98.9127 27.6977V28.0475H92.9327V27.6977C94.3415 27.5512 95.1309 26.965 95.2491 25.0599Z" fill="white"/>
<path d="M142.186 24.885C144.299 19.5763 146.379 13.1 148.695 6.70407H149.107L155.881 25.4098C156.495 27.0832 157.521 27.5796 158.726 27.6977V28.0476H149.489V27.6977C152.6 27.4945 153.04 26.965 152.449 25.2632L151.451 22.3323H143.888C143.623 23.1832 143.358 24.0058 143.127 24.8236C142.512 26.965 142.952 27.4897 145.561 27.6977V28.0476H138.962V27.6977C140.163 27.5512 141.307 27.0832 142.186 24.885ZM151.272 21.7745L147.721 11.2186C146.403 14.8538 145.112 18.4323 144.058 21.7745H151.272Z" fill="white"/>
<path d="M164.234 25.6745V9.11022C164.234 7.79132 163.558 7.23351 162.007 7.0586V6.70879H170.98C175.116 6.70879 177.782 8.70368 177.782 11.8378C177.782 14.4189 175.437 16.4138 172.18 16.9102L177.049 24.9748C178.137 26.7617 179.044 27.5559 180.656 27.7025V28.0523C177.224 28.5817 174.936 27.9341 173.504 25.3861L169.84 18.8767C169.079 17.5294 168.346 17.1465 167.67 17.1465H167.174V25.6792C167.174 26.9981 167.907 27.5559 170.077 27.7025V28.0523H162.012V27.7025C163.567 27.5275 164.238 26.9697 164.238 25.6792L164.234 25.6745ZM167.576 16.584C172.823 16.584 174.553 15.2367 174.553 12.0978C174.553 8.95895 172.733 7.20042 170.478 7.20042H169.424C167.897 7.20042 167.165 7.75823 167.165 9.1055V16.584H167.576Z" fill="white"/>
<path d="M186.721 25.6461V9.11022C186.721 7.79132 186.045 7.23351 184.495 7.0586V6.70879H198.743L199.329 11.8993H198.946C198.416 8.61386 196.28 7.20987 192.38 7.20987H191.912C190.385 7.20987 189.652 7.76769 189.652 9.11495V15.7425C191.264 15.7425 192.729 15.7709 194.167 15.6527C195.722 15.5062 196.719 14.6836 196.951 12.1073H197.334V20.0821H196.951C196.658 17.208 195.689 16.4469 194.167 16.3287C192.729 16.2389 191.264 16.272 189.652 16.2389V25.6508C189.652 26.9981 190.385 27.5559 191.912 27.5559H193.056C196.956 27.5559 199.097 26.1472 199.622 22.2803H200.005L199.419 28.057H184.495V27.7072C186.05 27.5323 186.721 26.9745 186.721 25.6556V25.6461Z" fill="white"/>
<path d="M139.638 6.69461C138.333 6.69461 136.267 6.55752 136.267 6.55752V7.41788C139.326 7.52188 139.496 8.27824 138.603 10.5095L133.483 23.4338L129.739 13.2607L130.703 11.0248C131.805 8.4106 132.145 7.51715 134.003 7.41788V6.55752C133.18 6.62843 131.048 6.7277 128.983 6.7277C127.366 6.7277 123.726 6.6237 122.729 6.55752V7.41788C124.274 7.41788 124.79 7.65897 125.513 9.58295L127.711 15.5629L124.619 23.3298L119.599 9.64914C119.013 8.03242 119.325 7.48406 121.079 7.41315V6.5528C121.079 6.5528 118.914 6.68989 117.401 6.68989C115.751 6.68989 113.86 6.5528 113.241 6.5528V7.41315C115.198 7.41315 115.855 7.44624 116.645 9.57823L123.622 28.3123L128.193 16.7967L132.49 28.3123L139.572 10.6088C140.635 7.9946 140.98 7.51715 142.904 7.41315V6.5528C142.904 6.5528 140.947 6.68989 139.638 6.68989V6.69461ZM129.328 12.0931L128.363 9.72005C128.051 8.96369 127.711 8.10333 127.815 7.86224C127.985 7.48406 128.846 7.48406 129.328 7.48406C129.673 7.48406 130.462 7.55497 130.67 7.82915C130.807 8.03715 130.84 8.44842 129.706 11.1619L129.328 12.0884V12.0931Z" fill="white"/>
<path d="M8.68863 28.3832C9.07154 28.3832 9.44499 28.4541 9.79953 28.5912C10.0264 28.6857 10.2675 28.7424 10.5086 28.7661C10.6221 28.7803 10.7355 28.7661 10.849 28.7377C10.8537 28.7377 10.8584 28.7377 10.8632 28.7377C10.8301 28.6999 10.7923 28.6668 10.745 28.6384C10.5512 28.5155 10.3621 28.3879 10.1777 28.2603C9.93189 28.0854 9.73335 27.8443 9.61044 27.5748C9.52062 27.3385 9.4639 27.0974 9.44499 26.8516C9.41663 26.5112 9.39299 26.1566 9.38353 25.7974C9.37408 25.6556 9.36463 25.5137 9.3599 25.3719L9.34099 23.117V23.0981C9.37408 23.0367 9.40717 22.9894 9.44499 22.9469C9.49699 22.8949 9.5679 22.8665 9.64353 22.8665H9.75699L12.565 22.8901C12.6501 22.8901 12.7351 22.8949 12.8202 22.909C12.8864 22.9374 12.9337 22.9799 12.9621 23.0367C13.0377 23.1549 13.1086 23.2778 13.1842 23.4007V21.5996C13.1842 21.5996 13.1842 21.6043 13.1842 21.609C13.1039 21.7461 13.0282 21.8738 12.9431 22.0014C12.8959 22.0723 12.8202 22.1054 12.7304 22.1101C12.5461 22.1196 12.3428 22.1243 12.1395 22.1196L9.71917 22.1432C9.65299 22.1479 9.58208 22.1385 9.52062 22.1101C9.45444 22.0676 9.40717 22.0156 9.37881 21.9541L9.33626 21.8549L9.22754 10.2684C9.21808 10.1975 9.21808 10.1171 9.22754 10.0415C9.23226 10.0037 9.2559 9.96586 9.28899 9.94695C9.32208 9.92804 9.3599 9.92331 9.39772 9.93277C9.44499 9.94222 9.49699 9.96113 9.55371 9.98476C9.64353 10.0273 9.7428 10.0604 9.84208 10.0793C9.87517 10.0888 9.90826 10.0888 9.94135 10.084C9.93189 10.0273 9.91299 9.98004 9.89408 9.93277C9.75226 9.57822 9.62935 9.20004 9.52062 8.81241C9.35044 8.22623 9.18499 7.64478 9.01954 7.0586L8.84463 6.35897C8.82572 6.27861 8.79263 6.20297 8.75481 6.13679C8.74063 6.10843 8.71699 6.08952 8.68863 6.08479C8.65554 6.09425 8.63663 6.11316 8.62245 6.13679C8.5799 6.2077 8.55154 6.28334 8.53736 6.35897L8.36245 7.0586C8.197 7.64478 8.03154 8.23096 7.86136 8.81714C7.75264 9.20477 7.62973 9.57822 7.48791 9.93277C7.46428 9.98477 7.45009 10.032 7.44064 10.0888C7.469 10.0888 7.50209 10.0888 7.53518 10.0793C7.63918 10.0557 7.73846 10.0273 7.82827 9.98476C7.88027 9.96113 7.93227 9.94222 7.98427 9.93277C8.01736 9.92331 8.05991 9.93277 8.093 9.94695C8.12609 9.97058 8.14973 10.0037 8.15445 10.0415C8.16863 10.1219 8.16863 10.2022 8.15445 10.2731L8.041 21.8879L8.00791 21.9494C7.97955 22.0109 7.93227 22.0629 7.87555 22.1007C7.79991 22.1338 7.73373 22.1432 7.66282 22.1385L5.24247 22.1149C5.05338 22.1149 4.85011 22.1149 4.64684 22.1007C4.57121 22.1054 4.48612 22.0676 4.44357 21.9967C4.37266 21.8879 4.29703 21.765 4.20721 21.6138C4.20721 21.609 4.20248 21.5996 4.19775 21.5949V23.4007C4.27812 23.2636 4.35375 23.1407 4.42466 23.0272C4.44357 22.9799 4.49084 22.9374 4.54757 22.909C4.64684 22.8901 4.73666 22.8854 4.81702 22.8854L7.62028 22.857H7.73846C7.73846 22.857 7.74318 22.857 7.74791 22.857C7.81409 22.857 7.88027 22.8854 7.93227 22.9327C7.97482 22.9752 8.00791 23.0272 8.03154 23.0792L8.041 23.117L8.02209 25.3577C8.01736 25.5137 8.00791 25.6508 7.99845 25.7879C7.98427 26.1425 7.96536 26.497 7.937 26.8421C7.92282 27.0832 7.86609 27.3243 7.77155 27.5654C7.64391 27.8443 7.45009 28.0806 7.20428 28.2555C7.0341 28.3737 6.84973 28.5014 6.63701 28.6337C6.58974 28.6621 6.55192 28.6952 6.51883 28.733C6.51883 28.733 6.52356 28.733 6.52828 28.733C6.64174 28.7661 6.75992 28.7755 6.86864 28.7661C7.11446 28.7424 7.35082 28.6857 7.57773 28.5912C7.93227 28.4541 8.30572 28.3832 8.68863 28.3832Z" fill="white"/>
<path d="M4.99199 26.4072C4.52873 26.4072 4.15527 26.7854 4.15527 27.2439C4.15527 27.7025 4.53345 28.0854 4.99199 28.0854C5.45054 28.0854 5.83344 27.7072 5.83344 27.2439C5.83344 26.7806 5.45526 26.4072 4.99199 26.4072Z" fill="white"/>
<path d="M12.3901 26.4072C11.9268 26.4072 11.5533 26.7854 11.5533 27.2439C11.5533 27.7025 11.9315 28.0854 12.3901 28.0854C12.8486 28.0854 13.2315 27.7072 13.2315 27.2439C13.2315 26.7806 12.8533 26.4072 12.3901 26.4072Z" fill="white"/>
<path d="M17.7413 23.9585C17.7555 24.0152 17.7696 24.0672 17.7885 24.1098C17.9304 24.469 18.058 24.8472 18.162 25.2301C18.3322 25.8163 18.4976 26.3977 18.6631 26.9839L18.838 27.6835C18.8569 27.7639 18.8853 27.8396 18.9278 27.9057C18.942 27.9294 18.9656 27.9483 18.994 27.9577C19.0224 27.9483 19.046 27.9294 19.0602 27.9057C19.098 27.8348 19.1311 27.7592 19.1453 27.6835L19.3202 26.9839C19.4856 26.3977 19.6511 25.8116 19.8213 25.2254C19.93 24.8378 20.0529 24.4643 20.1947 24.105C20.2136 24.0578 20.2325 24.0058 20.242 23.9538C20.2089 23.9538 20.1805 23.9538 20.1474 23.9632C20.0434 23.9821 19.9489 24.0152 19.8544 24.0578C19.8071 24.0767 19.7551 24.0956 19.6984 24.1098C19.6605 24.1192 19.6227 24.1098 19.5944 24.0908C19.566 24.0719 19.5424 24.0436 19.5329 24.0058C19.5187 23.9159 19.5234 23.8403 19.5329 23.7694L19.6464 12.1546L19.6794 12.0931C19.7078 12.0317 19.7551 11.9797 19.8118 11.9418C19.8874 11.9088 19.9536 11.8993 20.0245 11.904L22.4449 11.9229C22.6576 11.9229 22.8514 11.9229 23.0405 11.9371C23.1161 11.9277 23.1965 11.9702 23.2438 12.0458C23.3241 12.1735 23.4045 12.3011 23.4801 12.4288C23.4801 12.4335 23.4801 12.4382 23.4849 12.4429V10.6466C23.4187 10.76 23.3431 10.8877 23.2627 11.0153C23.2391 11.0673 23.1965 11.1099 23.1398 11.1335C23.0452 11.1524 22.9601 11.1619 22.8656 11.1571L20.0671 11.1855H19.9489C19.878 11.1855 19.8118 11.1571 19.7551 11.1051C19.7125 11.0579 19.6794 11.0106 19.6558 10.9586L19.6464 10.9208L19.6653 8.68005C19.67 8.53351 19.6794 8.39169 19.6889 8.24987C19.7031 7.90951 19.722 7.55024 19.7504 7.1957C19.7693 6.94516 19.826 6.70407 19.9158 6.47716C20.0387 6.19825 20.2373 5.96189 20.4831 5.78698C20.6674 5.65462 20.8565 5.52698 21.0503 5.41353C21.0929 5.38989 21.1354 5.35208 21.1685 5.31426C21.1685 5.31426 21.1638 5.31426 21.1591 5.31426C21.0409 5.28117 20.9274 5.27171 20.8187 5.28117C20.5729 5.3048 20.3365 5.36153 20.1096 5.45608C19.7551 5.59317 19.3864 5.65935 19.0129 5.65935H18.9893C18.6111 5.65935 18.2424 5.58844 17.8925 5.45608C17.6656 5.36153 17.4293 5.3048 17.1835 5.28117C17.07 5.26699 16.9566 5.28117 16.8478 5.30953C16.8384 5.30953 16.8336 5.30953 16.8289 5.31426C16.862 5.35208 16.9046 5.38517 16.9471 5.41353C17.1409 5.53644 17.33 5.65935 17.5144 5.79171C17.7602 5.96662 17.9587 6.20298 18.0816 6.47716C18.1715 6.71352 18.2282 6.95461 18.2471 7.20043C18.2802 7.57861 18.2991 7.92369 18.3085 8.2546C18.318 8.39642 18.3275 8.53823 18.3322 8.68005L18.3511 10.9349V10.9539C18.318 11.0153 18.2849 11.0626 18.2471 11.1051C18.1904 11.1571 18.1242 11.1855 18.0485 11.1855H17.9351L15.1271 11.1619C15.0373 11.1619 14.9522 11.1571 14.8718 11.1382C14.8057 11.1099 14.7584 11.0673 14.7348 11.0153C14.6591 10.8971 14.5882 10.7789 14.5126 10.6513V12.4524C14.5126 12.4524 14.5126 12.4477 14.5126 12.4429C14.5929 12.3058 14.6686 12.1782 14.7489 12.0506C14.7962 11.9797 14.8718 11.9371 14.9617 11.9418C15.146 11.9324 15.3493 11.9277 15.5526 11.9324L17.9776 11.9088C18.0438 11.904 18.11 11.9135 18.1762 11.9418C18.2471 11.9891 18.2896 12.0411 18.318 12.1026L18.3605 12.2018L18.4693 23.7883C18.4787 23.8592 18.4787 23.9396 18.4693 24.0152C18.4598 24.053 18.4409 24.0861 18.4078 24.105C18.3747 24.1239 18.3369 24.1334 18.2991 24.1239C18.2376 24.1098 18.1856 24.0909 18.1431 24.0672C18.0485 24.0247 17.954 23.9916 17.85 23.9727C17.8169 23.9632 17.7838 23.9632 17.7507 23.9632L17.7413 23.9585Z" fill="white"/>
<path d="M15.2926 5.94771C14.8294 5.94771 14.4512 6.32589 14.4512 6.78916C14.4512 7.25243 14.8294 7.63061 15.2926 7.63061C15.7559 7.63061 16.1293 7.25243 16.1293 6.78916C16.1293 6.32589 15.7512 5.94771 15.2926 5.94771Z" fill="white"/>
<path d="M22.6907 5.94771C22.2274 5.94771 21.8492 6.32589 21.8492 6.78916C21.8492 7.25243 22.2274 7.63061 22.6907 7.63061C23.154 7.63061 23.5274 7.25243 23.5274 6.78916C23.5274 6.32589 23.1492 5.94771 22.6907 5.94771Z" fill="white"/>
<path d="M0 0.657928V33.3421H27.6071V0.657928H0ZM26.1889 31.9239H1.41817V2.0761H26.1889V31.9239Z" fill="white"/>
</g>
<defs>
<clipPath id="clip0_2010_20">
<rect width="200" height="32.6841" fill="white" transform="translate(0 0.657928)"/>
</clipPath>
</defs>
</svg>
